<?xml version="1.0" encoding="iso-8859-1"?>
    <svg version="1.1" id="Layer_1" xmlns="http://www.w3.org/2000/svg" xmlns:xlink="http://www.w3.org/1999/xlink"
        x="0px" y="0px" viewBox="0 0 472.615 472.615" fill="#ffffff" style="enable-background:new 0 0 472.615 472.615;"
        xml:space="preserve">
        <g>
            <g>
                <polygon points="472.615,403.692 472.615,344.593 0,344.593 0,403.692 147.692,403.692 147.692,452.923 108.308,452.923 
			108.308,472.615 364.308,472.615 364.308,452.923 324.923,452.923 324.923,403.692" />
            </g>
        </g>
        <g>
            <g>
                <rect x="78.769" y="226.442" width="19.692" height="19.692" />
            </g>
        </g>
        <g>
            <g>
                <rect x="226.462" y="59.057" width="19.692" height="19.692" />
            </g>
        </g>
        <g>
            <g>
                <rect x="59.077" y="59.057" width="19.692" height="19.692" />
            </g>
        </g>
        <g>
            <g>
                <rect x="393.846" y="59.057" width="19.692" height="19.692" />
            </g>
        </g>
        <g>
            <g>
                <rect x="374.154" y="226.442" width="19.692" height="19.692" />
            </g>
        </g>
        <g>
            <g>
                <path d="M0,0v324.9h201.996c-6.21-39.778-48.137-59.765-48.593-60.039l-9.157-4.234l70.203-142.474h12.012v74.839
			c-9.227,3.855-15.754,12.955-15.754,23.623c0,14.08,11.52,25.6,25.6,25.6s25.6-11.52,25.6-25.6
			c0-10.668-6.527-19.768-15.754-23.623v-74.839h12.012l70.203,142.474l-9.157,4.234c-0.456,0.273-42.341,20.496-48.582,60.039
			h201.985V0H0z M433.231,98.439h-59.077V78.747h-61.705c46.034,25.569,77.511,73.468,80.94,128h20.149v59.077h-59.077v-59.077
			h19.235c-4.364-60.735-48.565-111.804-107.851-124.768v16.46h-59.077v-16.46c-59.286,12.963-103.487,64.032-107.851,124.768
			h19.235v59.077H59.077v-59.077h20.15c3.428-54.532,34.906-102.431,80.94-128H98.462v19.692H39.385V39.362h59.077v19.692h108.308
			V39.362h59.077v19.692h108.308V39.362h59.077V98.439z" />
            </g>
        </g>
    </svg>