<?xml version="1.0" encoding="iso-8859-1"?>
    <svg version="1.1" id="Layer_1" xmlns="http://www.w3.org/2000/svg" xmlns:xlink="http://www.w3.org/1999/xlink"
        x="0px" y="0px" viewBox="0 0 512 512" fill="#ffffff" style="enable-background:new 0 0 512 512;"
        xml:space="preserve">
        <g>
            <g>
                <path d="M471.149,43.574H317.594c-4.513,0-8.17,3.657-8.17,8.17s3.657,8.17,8.17,8.17h153.555
			c13.515,0,24.511,10.996,24.511,24.511v264.17H329.532V125.821c0-0.325-0.024-0.644-0.061-0.96
			c-0.01-0.082-0.025-0.161-0.037-0.244c-0.036-0.243-0.082-0.483-0.138-0.719c-0.02-0.082-0.04-0.162-0.063-0.244
			c-0.07-0.255-0.153-0.505-0.246-0.751c-0.02-0.051-0.036-0.104-0.057-0.156c-0.122-0.301-0.259-0.593-0.415-0.874
			c-0.011-0.023-33.549-60.392-33.549-60.392c-0.023-0.04-31.824-57.282-31.824-57.282C261.701,1.609,258.967,0,256,0
			c-2.967,0-5.701,1.609-7.143,4.202l-31.801,57.242c-0.023,0.04-33.561,60.409-33.561,60.409c-0.166,0.303-0.303,0.596-0.425,0.895
			c-0.021,0.052-0.037,0.105-0.058,0.157c-0.094,0.245-0.175,0.495-0.245,0.75c-0.023,0.081-0.042,0.162-0.063,0.244
			c-0.057,0.236-0.102,0.476-0.138,0.719c-0.012,0.082-0.027,0.161-0.037,0.244c-0.037,0.316-0.061,0.635-0.061,0.96v222.774H16.34
			V84.426c0-13.515,10.996-24.511,24.511-24.511h153.555c4.513,0,8.17-3.657,8.17-8.17s-3.657-8.17-8.17-8.17H40.851
			C18.325,43.574,0,61.9,0,84.426v305.021c0,22.526,18.325,40.851,40.851,40.851h256v40.851c0,9.19,3.051,17.678,8.192,24.511
			h-98.086c5.141-6.832,8.192-15.321,8.192-24.511v-16.34c0-4.513-3.657-8.17-8.17-8.17c-4.513,0-8.17,3.657-8.17,8.17v16.34
			c0,13.515-10.996,24.511-24.511,24.511h-65.363c-4.513,0-8.17,3.657-8.17,8.17s3.657,8.17,8.17,8.17h294.128
			c4.513,0,8.17-3.657,8.17-8.17s-3.657-8.17-8.17-8.17h-65.361c-13.515,0-24.511-10.996-24.511-24.511v-40.851h157.957
			c22.526,0,40.851-18.325,40.851-40.851V84.426C512,61.9,493.675,43.574,471.149,43.574z M256,24.993l17.887,32.198h-35.775
			L256,24.993z M229.034,73.532h53.931l24.511,44.119H204.523L229.034,73.532z M313.191,133.992v214.604H264.17V133.992H313.191z
			 M198.809,133.992h49.021v214.604h-49.021V133.992z M495.66,389.447c0,13.515-10.996,24.511-24.511,24.511H40.851
			c-13.515,0-24.511-10.996-24.511-24.511v-24.511H495.66V389.447z" />
            </g>
        </g>
        <g>
            <g>
                <circle cx="256" cy="389.447" r="8.17" />
            </g>
        </g>
    </svg>